<svg xmlns="http://www.w3.org/2000/svg" xmlns:xlink="http://www.w3.org/1999/xlink" width="500" zoomAndPan="magnify" viewBox="0 0 375 374.999991" height="500" preserveAspectRatio="xMidYMid meet" version="1.0"><defs><g/></defs><rect x="-37.5" width="450" fill="#ffffff" y="-37.499999" height="449.999989" fill-opacity="1"/><rect x="-37.5" width="450" fill="#2d2d2d" y="-37.499999" height="449.999989" fill-opacity="1"/><g fill="#ff6000" fill-opacity="1"><g transform="translate(96.609373, 283.124983)"><g><path d="M 120.71875 -193.875 C 141.070312 -193.875 156.566406 -189.335938 167.203125 -180.265625 C 177.835938 -171.191406 183.15625 -159.132812 183.15625 -144.09375 C 183.15625 -139.507812 182.785156 -135.382812 182.046875 -131.71875 C 179.847656 -118.519531 174.253906 -106.925781 165.265625 -96.9375 C 156.285156 -86.945312 144.375 -79.84375 129.53125 -75.625 L 159.78125 0 L 99.828125 0 L 73.96875 -71.5 L 68.203125 -71.5 L 55.546875 0 L 1.375 0 L 35.75 -193.875 Z M 74.796875 -108.34375 L 101.46875 -108.34375 C 115.769531 -108.34375 124.207031 -115.128906 126.78125 -128.703125 C 127.144531 -130.898438 127.328125 -132.457031 127.328125 -133.375 C 127.328125 -138.320312 125.722656 -142.171875 122.515625 -144.921875 C 119.304688 -147.671875 114.582031 -149.046875 108.34375 -149.046875 L 81.671875 -149.046875 Z M 74.796875 -108.34375 "/></g></g></g></svg>