<svg xmlns="http://www.w3.org/2000/svg" xmlns:xlink="http://www.w3.org/1999/xlink" width="1000" zoomAndPan="magnify" viewBox="0 0 750 225" height="300" preserveAspectRatio="xMidYMid meet" version="1.2"><defs/><g id="a68367481c"><rect x="0" width="750" y="0" height="225" style="fill:#ffffff;fill-opacity:1;stroke:none;"/><rect x="0" width="750" y="0" height="225" style="fill:#2d2d2d;fill-opacity:1;stroke:none;"/><g style="fill:#ff6000;fill-opacity:1;"><g transform="translate(45.98114, 160.265201)"><path style="stroke:none" d="M 60.046875 -96.4375 C 70.171875 -96.4375 77.875 -94.175781 83.15625 -89.65625 C 88.445312 -85.144531 91.09375 -79.148438 91.09375 -71.671875 C 91.09375 -69.390625 90.910156 -67.335938 90.546875 -65.515625 C 89.453125 -58.953125 86.671875 -53.1875 82.203125 -48.21875 C 77.734375 -43.25 71.804688 -39.710938 64.421875 -37.609375 L 79.46875 0 L 49.65625 0 L 36.796875 -35.5625 L 33.921875 -35.5625 L 27.625 0 L 0.6875 0 L 17.78125 -96.4375 Z M 37.203125 -53.890625 L 50.46875 -53.890625 C 57.582031 -53.890625 61.78125 -57.265625 63.0625 -64.015625 C 63.238281 -65.109375 63.328125 -65.882812 63.328125 -66.34375 C 63.328125 -68.800781 62.53125 -70.710938 60.9375 -72.078125 C 59.34375 -73.453125 56.992188 -74.140625 53.890625 -74.140625 L 40.625 -74.140625 Z M 37.203125 -53.890625 "/></g></g><g style="fill:#ff6000;fill-opacity:1;"><g transform="translate(136.391053, 160.265201)"><path style="stroke:none" d="M 49.109375 -77.6875 C 59.140625 -77.6875 67.09375 -74.992188 72.96875 -69.609375 C 78.851562 -64.234375 81.796875 -56.894531 81.796875 -47.59375 C 81.796875 -44.5 81.566406 -41.765625 81.109375 -39.390625 C 80.566406 -36.472656 80.019531 -34.375 79.46875 -33.09375 L 28.71875 -33.09375 C 28.632812 -32.550781 28.59375 -31.734375 28.59375 -30.640625 C 28.59375 -27.171875 29.429688 -24.613281 31.109375 -22.96875 C 32.796875 -21.332031 35.054688 -20.515625 37.890625 -20.515625 C 42.359375 -20.515625 45.914062 -22.519531 48.5625 -26.53125 L 77.015625 -26.53125 C 74.910156 -21.25 71.785156 -16.53125 67.640625 -12.375 C 63.492188 -8.226562 58.613281 -4.96875 53 -2.59375 C 47.394531 -0.226562 41.445312 0.953125 35.15625 0.953125 C 25.125 0.953125 17.144531 -1.78125 11.21875 -7.25 C 5.289062 -12.71875 2.328125 -20.238281 2.328125 -29.8125 C 2.328125 -32.550781 2.597656 -35.425781 3.140625 -38.4375 C 4.597656 -46.457031 7.492188 -53.40625 11.828125 -59.28125 C 16.160156 -65.164062 21.539062 -69.703125 27.96875 -72.890625 C 34.394531 -76.085938 41.441406 -77.6875 49.109375 -77.6875 Z M 54.71875 -45.140625 C 54.894531 -46.410156 54.984375 -47.226562 54.984375 -47.59375 C 54.984375 -50.519531 54.070312 -52.734375 52.25 -54.234375 C 50.425781 -55.734375 48.054688 -56.484375 45.140625 -56.484375 C 41.765625 -56.484375 38.84375 -55.523438 36.375 -53.609375 C 33.914062 -51.703125 32.09375 -48.878906 30.90625 -45.140625 Z M 54.71875 -45.140625 "/></g></g><g style="fill:#ff6000;fill-opacity:1;"><g transform="translate(220.645989, 160.265201)"><path style="stroke:none" d="M 34.1875 0.953125 C 27.8125 0.953125 22.113281 0 17.09375 -1.90625 C 12.082031 -3.820312 8.160156 -6.535156 5.328125 -10.046875 C 2.503906 -13.554688 1.09375 -17.59375 1.09375 -22.15625 C 1.09375 -22.976562 1.1875 -24.210938 1.375 -25.859375 L 27.21875 -25.859375 C 27.125 -23.296875 27.894531 -21.332031 29.53125 -19.96875 C 31.175781 -18.601562 33.460938 -17.921875 36.390625 -17.921875 C 38.660156 -17.921875 40.546875 -18.375 42.046875 -19.28125 C 43.554688 -20.195312 44.3125 -21.382812 44.3125 -22.84375 C 44.3125 -24.570312 43.351562 -25.914062 41.4375 -26.875 C 39.53125 -27.832031 36.34375 -29.039062 31.875 -30.5 C 26.675781 -32.144531 22.390625 -33.738281 19.015625 -35.28125 C 15.640625 -36.832031 12.695312 -39.113281 10.1875 -42.125 C 7.675781 -45.132812 6.421875 -49.007812 6.421875 -53.75 C 6.421875 -58.3125 7.765625 -62.414062 10.453125 -66.0625 C 13.148438 -69.707031 16.957031 -72.554688 21.875 -74.609375 C 26.800781 -76.660156 32.503906 -77.6875 38.984375 -77.6875 C 45.910156 -77.6875 51.90625 -76.523438 56.96875 -74.203125 C 62.03125 -71.878906 65.8125 -68.664062 68.3125 -64.5625 C 70.820312 -60.457031 71.941406 -55.894531 71.671875 -50.875 L 47.59375 -50.875 C 47.6875 -53.34375 46.957031 -55.28125 45.40625 -56.6875 C 43.863281 -58.101562 41.628906 -58.8125 38.703125 -58.8125 C 36.609375 -58.8125 34.875 -58.351562 33.5 -57.4375 C 32.132812 -56.53125 31.453125 -55.347656 31.453125 -53.890625 C 31.453125 -52.160156 32.429688 -50.789062 34.390625 -49.78125 C 36.359375 -48.78125 39.664062 -47.503906 44.3125 -45.953125 C 49.425781 -44.316406 53.691406 -42.695312 57.109375 -41.09375 C 60.523438 -39.5 63.460938 -37.265625 65.921875 -34.390625 C 68.390625 -31.523438 69.625 -27.859375 69.625 -23.390625 C 69.625 -15.816406 66.335938 -9.863281 59.765625 -5.53125 C 53.203125 -1.207031 44.675781 0.953125 34.1875 0.953125 Z M 34.1875 0.953125 "/></g></g><g style="fill:#ff6000;fill-opacity:1;"><g transform="translate(298.335621, 160.265201)"><path style="stroke:none" d="M 36.390625 0.953125 C 29.734375 0.953125 23.828125 -0.363281 18.671875 -3 C 13.515625 -5.644531 9.523438 -9.382812 6.703125 -14.21875 C 3.878906 -19.050781 2.46875 -24.707031 2.46875 -31.1875 C 2.46875 -39.9375 4.539062 -47.867188 8.6875 -54.984375 C 12.832031 -62.097656 18.550781 -67.660156 25.84375 -71.671875 C 33.144531 -75.679688 41.304688 -77.6875 50.328125 -77.6875 C 56.992188 -77.6875 62.898438 -76.363281 68.046875 -73.71875 C 73.203125 -71.082031 77.210938 -67.320312 80.078125 -62.4375 C 82.953125 -57.5625 84.390625 -51.882812 84.390625 -45.40625 C 84.390625 -36.5625 82.289062 -28.601562 78.09375 -21.53125 C 73.90625 -14.46875 68.160156 -8.953125 60.859375 -4.984375 C 53.566406 -1.023438 45.410156 0.953125 36.390625 0.953125 Z M 40.484375 -22.15625 C 43.679688 -22.15625 46.53125 -23.15625 49.03125 -25.15625 C 51.539062 -27.164062 53.457031 -29.765625 54.78125 -32.953125 C 56.101562 -36.148438 56.765625 -39.4375 56.765625 -42.8125 C 56.765625 -46.644531 55.78125 -49.5625 53.8125 -51.5625 C 51.851562 -53.570312 49.328125 -54.578125 46.234375 -54.578125 C 42.953125 -54.578125 40.101562 -53.570312 37.6875 -51.5625 C 35.269531 -49.5625 33.398438 -46.960938 32.078125 -43.765625 C 30.753906 -40.578125 30.09375 -37.25 30.09375 -33.78125 C 30.09375 -29.957031 31.050781 -27.0625 32.96875 -25.09375 C 34.882812 -23.132812 37.390625 -22.15625 40.484375 -22.15625 Z M 40.484375 -22.15625 "/></g></g><g style="fill:#ff6000;fill-opacity:1;"><g transform="translate(385.326122, 160.265201)"><path style="stroke:none" d="M 64.703125 -77.421875 C 72.171875 -77.421875 78.023438 -75.253906 82.265625 -70.921875 C 86.515625 -66.585938 88.640625 -60.59375 88.640625 -52.9375 C 88.640625 -50.382812 88.363281 -47.648438 87.8125 -44.734375 L 79.875 0 L 53.078125 0 L 60.328125 -41.171875 C 60.597656 -42.535156 60.734375 -43.765625 60.734375 -44.859375 C 60.734375 -48.140625 59.796875 -50.691406 57.921875 -52.515625 C 56.054688 -54.347656 53.4375 -55.265625 50.0625 -55.265625 C 46.226562 -55.265625 42.988281 -54.078125 40.34375 -51.703125 C 37.707031 -49.328125 35.929688 -46.046875 35.015625 -41.859375 L 27.625 0 L 0.6875 0 L 14.359375 -76.734375 L 41.171875 -76.734375 L 39.25 -65.796875 C 42.257812 -69.253906 45.953125 -72.054688 50.328125 -74.203125 C 54.710938 -76.347656 59.503906 -77.421875 64.703125 -77.421875 Z M 64.703125 -77.421875 "/></g></g><g style="fill:#ff6000;fill-opacity:1;"><g transform="translate(479.15551, 160.265201)"><path style="stroke:none" d="M 49.109375 -77.6875 C 59.140625 -77.6875 67.09375 -74.992188 72.96875 -69.609375 C 78.851562 -64.234375 81.796875 -56.894531 81.796875 -47.59375 C 81.796875 -44.5 81.566406 -41.765625 81.109375 -39.390625 C 80.566406 -36.472656 80.019531 -34.375 79.46875 -33.09375 L 28.71875 -33.09375 C 28.632812 -32.550781 28.59375 -31.734375 28.59375 -30.640625 C 28.59375 -27.171875 29.429688 -24.613281 31.109375 -22.96875 C 32.796875 -21.332031 35.054688 -20.515625 37.890625 -20.515625 C 42.359375 -20.515625 45.914062 -22.519531 48.5625 -26.53125 L 77.015625 -26.53125 C 74.910156 -21.25 71.785156 -16.53125 67.640625 -12.375 C 63.492188 -8.226562 58.613281 -4.96875 53 -2.59375 C 47.394531 -0.226562 41.445312 0.953125 35.15625 0.953125 C 25.125 0.953125 17.144531 -1.78125 11.21875 -7.25 C 5.289062 -12.71875 2.328125 -20.238281 2.328125 -29.8125 C 2.328125 -32.550781 2.597656 -35.425781 3.140625 -38.4375 C 4.597656 -46.457031 7.492188 -53.40625 11.828125 -59.28125 C 16.160156 -65.164062 21.539062 -69.703125 27.96875 -72.890625 C 34.394531 -76.085938 41.441406 -77.6875 49.109375 -77.6875 Z M 54.71875 -45.140625 C 54.894531 -46.410156 54.984375 -47.226562 54.984375 -47.59375 C 54.984375 -50.519531 54.070312 -52.734375 52.25 -54.234375 C 50.425781 -55.734375 48.054688 -56.484375 45.140625 -56.484375 C 41.765625 -56.484375 38.84375 -55.523438 36.375 -53.609375 C 33.914062 -51.703125 32.09375 -48.878906 30.90625 -45.140625 Z M 54.71875 -45.140625 "/></g></g><g style="fill:#ff6000;fill-opacity:1;"><g transform="translate(563.410445, 160.265201)"><path style="stroke:none" d="M 3.140625 -38.4375 C 4.597656 -46.457031 7.492188 -53.40625 11.828125 -59.28125 C 16.160156 -65.164062 21.539062 -69.703125 27.96875 -72.890625 C 34.394531 -76.085938 41.394531 -77.6875 48.96875 -77.6875 C 58.726562 -77.6875 66.476562 -75.019531 72.21875 -69.6875 C 77.96875 -64.351562 80.976562 -56.898438 81.25 -47.328125 L 52.65625 -47.328125 C 51.925781 -52.335938 49.144531 -54.84375 44.3125 -54.84375 C 40.9375 -54.84375 38.019531 -53.453125 35.5625 -50.671875 C 33.101562 -47.890625 31.414062 -43.8125 30.5 -38.4375 C 30.132812 -36.613281 29.953125 -34.789062 29.953125 -32.96875 C 29.953125 -29.320312 30.726562 -26.5625 32.28125 -24.6875 C 33.832031 -22.820312 35.929688 -21.890625 38.578125 -21.890625 C 43.492188 -21.890625 47.09375 -24.394531 49.375 -29.40625 L 77.96875 -29.40625 C 74.40625 -19.925781 68.816406 -12.492188 61.203125 -7.109375 C 53.585938 -1.734375 44.859375 0.953125 35.015625 0.953125 C 24.984375 0.953125 17.023438 -1.78125 11.140625 -7.25 C 5.265625 -12.71875 2.328125 -20.238281 2.328125 -29.8125 C 2.328125 -32.550781 2.597656 -35.425781 3.140625 -38.4375 Z M 3.140625 -38.4375 "/></g></g><g style="fill:#ff6000;fill-opacity:1;"><g transform="translate(646.434372, 160.265201)"><path style="stroke:none" d="M 36.9375 -28.71875 C 36.84375 -28.269531 36.796875 -27.722656 36.796875 -27.078125 C 36.796875 -25.617188 37.226562 -24.546875 38.09375 -23.859375 C 38.957031 -23.179688 40.394531 -22.84375 42.40625 -22.84375 L 50.203125 -22.84375 L 46.09375 0 L 34.328125 0 C 17.640625 0 9.296875 -7.019531 9.296875 -21.0625 C 9.296875 -23.4375 9.570312 -26.128906 10.125 -29.140625 L 14.640625 -54.4375 L 5.203125 -54.4375 L 9.171875 -76.734375 L 18.609375 -76.734375 L 21.890625 -95.34375 L 48.828125 -95.34375 L 45.546875 -76.734375 L 59.359375 -76.734375 L 55.390625 -54.4375 L 41.578125 -54.4375 Z M 36.9375 -28.71875 "/></g></g></g></svg>