<svg xmlns="http://www.w3.org/2000/svg" viewBox="0 0 375 375" version="1.0">
  <g fill="#000000">
    <path d="M120.719 89.25c20.351 0 35.847 4.54 46.484 13.61 10.632 9.074 15.953 21.132 15.953 36.171 0 4.586-.371 8.711-1.11 12.375-2.199 13.199-7.793 24.793-16.781 34.781-8.98 9.992-20.89 17.094-35.734 21.313L159.781 283h-59.953l-25.859-71.5H68.203L55.547 283H1.375l34.375-193.75zm-45.922 85.531h26.672c14.3 0 22.738-6.785 25.312-20.359.363-2.195.547-3.754.547-4.672 0-4.945-1.606-8.796-4.813-11.546-3.211-2.75-7.933-4.125-14.171-4.125H74.797z"/>
  </g>
</svg>
